{"asset":{"version":"2.0","generator":"Blockbench 4.11.1 glTF exporter"},"scenes":[{"nodes":[4],"name":"blockbench_export"}],"scene":0,"nodes":[{"translation":[0,-11.25,0],"name":"walls","mesh":0},{"rotation":[0,-0.3624380382837016,0,0.9320078692827986],"translation":[0,10.625,0],"name":"walls2","mesh":1},{"rotation":[-3.311941572101959e-16,-0.737277336810124,2.962450742166489e-16,0.6755902076156604],"translation":[0,32.4375,0],"name":"walls3","mesh":2},{"rotation":[-2.703798603802281e-16,-0.6087614290087221,3.5236589435277497e-16,0.793353340291234],"translation":[0,53.625,0],"name":"walls4","mesh":3},{"children":[0,1,2,3]}],"bufferViews":[{"buffer":0,"byteOffset":0,"byteLength":3456,"target":34962,"byteStride":12},{"buffer":0,"byteOffset":3456,"byteLength":3456,"target":34962,"byteStride":12},{"buffer":0,"byteOffset":6912,"byteLength":2304,"target":34962,"byteStride":8},{"buffer":0,"byteOffset":9216,"byteLength":744,"target":34963},{"buffer":0,"byteOffset":9960,"byteLength":3456,"target":34962,"byteStride":12},{"buffer":0,"byteOffset":13416,"byteLength":3456,"target":34962,"byteStride":12},{"buffer":0,"byteOffset":16872,"byteLength":2304,"target":34962,"byteStride":8},{"buffer":0,"byteOffset":19176,"byteLength":744,"target":34963},{"buffer":0,"byteOffset":19920,"byteLength":3456,"target":34962,"byteStride":12},{"buffer":0,"byteOffset":23376,"byteLength":3456,"target":34962,"byteStride":12},{"buffer":0,"byteOffset":26832,"byteLength":2304,"target":34962,"byteStride":8},{"buffer":0,"byteOffset":29136,"byteLength":744,"target":34963},{"buffer":0,"byteOffset":29880,"byteLength":3456,"target":34962,"byteStride":12},{"buffer":0,"byteOffset":33336,"byteLength":3456,"target":34962,"byteStride":12},{"buffer":0,"byteOffset":36792,"byteLength":2304,"target":34962,"byteStride":8},{"buffer":0,"byteOffset":39096,"byteLength":744,"target":34963}],"buffers":[{"byteLength":39840,"uri":"data:application/octet-stream;base64,"}],"accessors":[{"bufferView":0,"componentType":5126,"count":288,"max":[10.3125,22.5,10.3125],"min":[-10.3125,0,-10.3125],"type":"VEC3"},{"bufferView":1,"componentType":5126,"count":288,"max":[1,1,1],"min":[-1,-1,-1],"type":"VEC3"},{"bufferView":2,"componentType":5126,"count":288,"max":[0.97314453125,0.64111328125],"min":[0,0],"type":"VEC2"},{"bufferView":3,"componentType":5123,"count":372,"max":[287],"min":[0],"type":"SCALAR"},{"bufferView":4,"componentType":5126,"count":288,"max":[10.3125,22.5,10.3125],"min":[-10.3125,0,-10.3125],"type":"VEC3"},{"bufferView":5,"componentType":5126,"count":288,"max":[1,1,1],"min":[-1,-1,-1],"type":"VEC3"},{"bufferView":6,"componentType":5126,"count":288,"max":[0.9853515625,0.64111328125],"min":[0,0],"type":"VEC2"},{"bufferView":7,"componentType":5123,"count":372,"max":[287],"min":[0],"type":"SCALAR"},{"bufferView":8,"componentType":5126,"count":288,"max":[10.3125,22.5,10.3125],"min":[-10.3125,0,-10.3125],"type":"VEC3"},{"bufferView":9,"componentType":5126,"count":288,"max":[1,1,1],"min":[-1,-1,-1],"type":"VEC3"},{"bufferView":10,"componentType":5126,"count":288,"max":[0.9853515625,0.64111328125],"min":[0,0],"type":"VEC2"},{"bufferView":11,"componentType":5123,"count":372,"max":[287],"min":[0],"type":"SCALAR"},{"bufferView":12,"componentType":5126,"count":288,"max":[10.3125,22.5,10.3125],"min":[-10.3125,0,-10.3125],"type":"VEC3"},{"bufferView":13,"componentType":5126,"count":288,"max":[1,1,1],"min":[-1,-1,-1],"type":"VEC3"},{"bufferView":14,"componentType":5126,"count":288,"max":[0.9853515625,0.64111328125],"min":[0,0],"type":"VEC2"},{"bufferView":15,"componentType":5123,"count":372,"max":[287],"min":[0],"type":"SCALAR"}],"materials":[{"pbrMetallicRoughness":{"metallicFactor":0,"roughnessFactor":1,"baseColorTexture":{"index":0}},"alphaMode":"MASK","alphaCutoff":0.05}],"textures":[{"sampler":0,"source":0,"name":"spookyjam_walls_0.png"}],"samplers":[{"magFilter":9728,"minFilter":9728,"wrapS":33071,"wrapT":33071}],"images":[{"mimeType":"image/png","uri":"data:image/png;base64,"}],"meshes":[{"primitives":[{"mode":4,"attributes":{"POSITION":0,"NORMAL":1,"TEXCOORD_0":2},"indices":3,"material":0}]},{"primitives":[{"mode":4,"attributes":{"POSITION":4,"NORMAL":5,"TEXCOORD_0":6},"indices":7,"material":0}]},{"primitives":[{"mode":4,"attributes":{"POSITION":8,"NORMAL":9,"TEXCOORD_0":10},"indices":11,"material":0}]},{"primitives":[{"mode":4,"attributes":{"POSITION":12,"NORMAL":13,"TEXCOORD_0":14},"indices":15,"material":0}]}]}