{"asset":{"version":"2.0","generator":"Blockbench 4.11.1 glTF exporter"},"scenes":[{"nodes":[25],"name":"blockbench_export"}],"scene":0,"nodes":[{"rotation":[0,-0.19509032201612825,0,0.9807852804032304],"name":"arrow","mesh":0},{"translation":[-8.326672684688674e-17,0.25,0.02042812366740976],"name":"bigarrow","children":[0]},{"rotation":[0,-0.9396926207859083,0,0.3420201433256688],"name":"arrowsmall","mesh":1},{"translation":[-8.326672684688674e-17,0.25,0.02042812366740976],"name":"smallarrow","children":[2]},{"name":"clockbase","mesh":2},{"rotation":[0,-0.19509032201612825,0,0.9807852804032304],"name":"middlecircle","mesh":3},{"name":"Clockface","children":[1,3,4,5]},{"name":"gear1","mesh":4},{"translation":[0,0.8125,0],"name":"gear1CW","children":[7]},{"name":"cog1","mesh":5},{"translation":[1.375,1.25,0.1875],"name":"gear2CCW","children":[9]},{"name":"cog2","mesh":6},{"translation":[2.5,1.5,-1.4375],"name":"gear2CW","children":[11]},{"name":"gear2","mesh":7},{"translation":[4,1.375,-0.75],"name":"gear1CCW","children":[13]},{"name":"gear3","mesh":8},{"translation":[2.9375,1.375,-2.75],"name":"gear1CCW2","children":[15]},{"name":"cog3","mesh":9},{"translation":[4.25,1.25,-3.4375],"name":"gear2CCW3","children":[17]},{"name":"cog3","mesh":10},{"translation":[5.375,1.375,-2.25],"name":"gear2CW2","children":[19]},{"translation":[0,-0.75,0],"name":"mechanical","children":[8,10,12,14,16,18,20]},{"name":"clockbase","mesh":11},{"rotation":[0,-0.19509032201612825,0,0.9807852804032304],"translation":[0,-0.25,0],"name":"middlecircle","mesh":12},{"rotation":[0,0,-1,6.123233995736766e-17],"name":"Clockface2","children":[21,22,23]},{"children":[6,24]}],"bufferViews":[{"buffer":0,"byteOffset":0,"byteLength":1728,"target":34962,"byteStride":12},{"buffer":0,"byteOffset":1728,"byteLength":1728,"target":34962,"byteStride":12},{"buffer":0,"byteOffset":3456,"byteLength":1152,"target":34962,"byteStride":8},{"buffer":0,"byteOffset":4608,"byteLength":408,"target":34963},{"buffer":0,"byteOffset":5016,"byteLength":1152,"target":34962,"byteStride":12},{"buffer":0,"byteOffset":6168,"byteLength":1152,"target":34962,"byteStride":12},{"buffer":0,"byteOffset":7320,"byteLength":768,"target":34962,"byteStride":8},{"buffer":0,"byteOffset":8088,"byteLength":264,"target":34963},{"buffer":0,"byteOffset":8352,"byteLength":6336,"target":34962,"byteStride":12},{"buffer":0,"byteOffset":14688,"byteLength":6336,"target":34962,"byteStride":12},{"buffer":0,"byteOffset":21024,"byteLength":4224,"target":34962,"byteStride":8},{"buffer":0,"byteOffset":25248,"byteLength":1440,"target":34963},{"buffer":0,"byteOffset":26688,"byteLength":1344,"target":34962,"byteStride":12},{"buffer":0,"byteOffset":28032,"byteLength":1344,"target":34962,"byteStride":12},{"buffer":0,"byteOffset":29376,"byteLength":896,"target":34962,"byteStride":8},{"buffer":0,"byteOffset":30272,"byteLength":288,"target":34963},{"buffer":0,"byteOffset":30560,"byteLength":2592,"target":34962,"byteStride":12},{"buffer":0,"byteOffset":33152,"byteLength":2592,"target":34962,"byteStride":12},{"buffer":0,"byteOffset":35744,"byteLength":1728,"target":34962,"byteStride":8},{"buffer":0,"byteOffset":37472,"byteLength":576,"target":34963},{"buffer":0,"byteOffset":38048,"byteLength":3840,"target":34962,"byteStride":12},{"buffer":0,"byteOffset":41888,"byteLength":3840,"target":34962,"byteStride":12},{"buffer":0,"byteOffset":45728,"byteLength":2560,"target":34962,"byteStride":8},{"buffer":0,"byteOffset":48288,"byteLength":960,"target":34963},{"buffer":0,"byteOffset":49248,"byteLength":3840,"target":34962,"byteStride":12},{"buffer":0,"byteOffset":53088,"byteLength":3840,"target":34962,"byteStride":12},{"buffer":0,"byteOffset":56928,"byteLength":2560,"target":34962,"byteStride":8},{"buffer":0,"byteOffset":59488,"byteLength":960,"target":34963},{"buffer":0,"byteOffset":60448,"byteLength":2592,"target":34962,"byteStride":12},{"buffer":0,"byteOffset":63040,"byteLength":2592,"target":34962,"byteStride":12},{"buffer":0,"byteOffset":65632,"byteLength":1728,"target":34962,"byteStride":8},{"buffer":0,"byteOffset":67360,"byteLength":576,"target":34963},{"buffer":0,"byteOffset":67936,"byteLength":2592,"target":34962,"byteStride":12},{"buffer":0,"byteOffset":70528,"byteLength":2592,"target":34962,"byteStride":12},{"buffer":0,"byteOffset":73120,"byteLength":1728,"target":34962,"byteStride":8},{"buffer":0,"byteOffset":74848,"byteLength":576,"target":34963},{"buffer":0,"byteOffset":75424,"byteLength":3840,"target":34962,"byteStride":12},{"buffer":0,"byteOffset":79264,"byteLength":3840,"target":34962,"byteStride":12},{"buffer":0,"byteOffset":83104,"byteLength":2560,"target":34962,"byteStride":8},{"buffer":0,"byteOffset":85664,"byteLength":960,"target":34963},{"buffer":0,"byteOffset":86624,"byteLength":3840,"target":34962,"byteStride":12},{"buffer":0,"byteOffset":90464,"byteLength":3840,"target":34962,"byteStride":12},{"buffer":0,"byteOffset":94304,"byteLength":2560,"target":34962,"byteStride":8},{"buffer":0,"byteOffset":96864,"byteLength":960,"target":34963},{"buffer":0,"byteOffset":97824,"byteLength":6336,"target":34962,"byteStride":12},{"buffer":0,"byteOffset":104160,"byteLength":6336,"target":34962,"byteStride":12},{"buffer":0,"byteOffset":110496,"byteLength":4224,"target":34962,"byteStride":8},{"buffer":0,"byteOffset":114720,"byteLength":1440,"target":34963},{"buffer":0,"byteOffset":116160,"byteLength":1344,"target":34962,"byteStride":12},{"buffer":0,"byteOffset":117504,"byteLength":1344,"target":34962,"byteStride":12},{"buffer":0,"byteOffset":118848,"byteLength":896,"target":34962,"byteStride":8},{"buffer":0,"byteOffset":119744,"byteLength":288,"target":34963},{"buffer":0,"byteOffset":120032,"byteLength":12},{"buffer":0,"byteOffset":120044,"byteLength":48},{"buffer":0,"byteOffset":120092,"byteLength":4436},{"buffer":0,"byteOffset":124528,"byteLength":17744},{"buffer":0,"byteOffset":142272,"byteLength":120},{"buffer":0,"byteOffset":142392,"byteLength":480},{"buffer":0,"byteOffset":142872,"byteLength":88},{"buffer":0,"byteOffset":142960,"byteLength":352},{"buffer":0,"byteOffset":143312,"byteLength":120},{"buffer":0,"byteOffset":143432,"byteLength":480},{"buffer":0,"byteOffset":143912,"byteLength":120},{"buffer":0,"byteOffset":144032,"byteLength":480},{"buffer":0,"byteOffset":144512,"byteLength":120},{"buffer":0,"byteOffset":144632,"byteLength":480},{"buffer":0,"byteOffset":145112,"byteLength":88},{"buffer":0,"byteOffset":145200,"byteLength":352},{"buffer":0,"byteOffset":145552,"byteLength":120},{"buffer":0,"byteOffset":145672,"byteLength":480}],"buffers":[{"byteLength":146152,"uri":"data:application/octet-stream;base64,"}],"accessors":[{"bufferView":0,"componentType":5126,"count":144,"max":[0.19277560710906982,0.3125,0.02870216593146324],"min":[-1.8304029703140259,-0.25,-3.4732542037963867],"type":"VEC3"},{"bufferView":1,"componentType":5126,"count":144,"max":[0.9961221814155579,0.9968917965888977,0.9957388639450073],"min":[-0.972734272480011,-1,-0.9151326417922974],"type":"VEC3"},{"bufferView":2,"componentType":5126,"count":144,"max":[0.7231242060661316,0.6640625],"min":[0,0],"type":"VEC2"},{"bufferView":3,"componentType":5123,"count":204,"max":[143],"min":[0],"type":"SCALAR"},{"bufferView":4,"componentType":5126,"count":96,"max":[0.15590426325798035,0.3125,0.02870216593146324],"min":[-1.3054039478302002,-0.25,-2.5432000160217285],"type":"VEC3"},{"bufferView":5,"componentType":5126,"count":96,"max":[0.9953190684318542,0.9968917965888977,0.9957388639450073],"min":[-0.9950108528137207,-1,-0.9008045792579651],"type":"VEC3"},{"bufferView":6,"componentType":5126,"count":96,"max":[0.7109375,0.697265625],"min":[0.06296484172344208,0],"type":"VEC2"},{"bufferView":7,"componentType":5123,"count":132,"max":[95],"min":[0],"type":"SCALAR"},{"bufferView":8,"componentType":5126,"count":528,"max":[4.375,0.625,4.375],"min":[-4.375,0,-4.375],"type":"VEC3"},{"bufferView":9,"componentType":5126,"count":528,"max":[1,1,1],"min":[-1,-1,-1],"type":"VEC3"},{"bufferView":10,"componentType":5126,"count":528,"max":[0.6982614994049072,0.484375],"min":[0.00017377045878674835,0],"type":"VEC2"},{"bufferView":11,"componentType":5123,"count":720,"max":[527],"min":[0],"type":"SCALAR"},{"bufferView":12,"componentType":5126,"count":112,"max":[0.625,0.75,0.625],"min":[-0.625,0,-0.625],"type":"VEC3"},{"bufferView":13,"componentType":5126,"count":112,"max":[1,0.9899495244026184,1],"min":[-1,-1,-1],"type":"VEC3"},{"bufferView":14,"componentType":5126,"count":112,"max":[0.7265625,0.7265625],"min":[0,0.0546875],"type":"VEC2"},{"bufferView":15,"componentType":5123,"count":144,"max":[111],"min":[0],"type":"SCALAR"},{"bufferView":16,"componentType":5126,"count":216,"max":[0.6674038171768188,0.5625,0.6875],"min":[-0.6674038171768188,0.1875,-0.6875],"type":"VEC3"},{"bufferView":17,"componentType":5126,"count":216,"max":[1,0.9922778606414795,1],"min":[-1,-0.9922778606414795,-1],"type":"VEC3"},{"bufferView":18,"componentType":5126,"count":216,"max":[0.683157742023468,0.7222957015037537],"min":[0.5908329486846924,0.6364501714706421],"type":"VEC2"},{"bufferView":19,"componentType":5123,"count":288,"max":[215],"min":[0],"type":"SCALAR"},{"bufferView":20,"componentType":5126,"count":320,"max":[0.9222392439842224,0.2300073653459549,0.8704819679260254],"min":[-0.9222392439842224,-0.2300073653459549,-0.908193051815033],"type":"VEC3"},{"bufferView":21,"componentType":5126,"count":320,"max":[0.9994245171546936,0.979712724685669,1],"min":[-0.9994245171546936,-0.979712724685669,-1],"type":"VEC3"},{"bufferView":22,"componentType":5126,"count":320,"max":[0.8315303921699524,0.8846186399459839],"min":[0.7039531469345093,0.7735704779624939],"type":"VEC2"},{"bufferView":23,"componentType":5123,"count":480,"max":[319],"min":[0],"type":"SCALAR"},{"bufferView":24,"componentType":5126,"count":320,"max":[1.2347391843795776,0.2300073653459549,1.1829819679260254],"min":[-1.2347391843795776,-0.2300073653459549,-1.2206931114196777],"type":"VEC3"},{"bufferView":25,"componentType":5126,"count":320,"max":[0.9994351267814636,0.9886637330055237,1],"min":[-0.9994351267814636,-0.9886637330055237,-1],"type":"VEC3"},{"bufferView":26,"componentType":5126,"count":320,"max":[0.8354366421699524,0.6014155149459839],"min":[0.7078593969345093,0.4903673529624939],"type":"VEC2"},{"bufferView":27,"componentType":5123,"count":480,"max":[319],"min":[0],"type":"SCALAR"},{"bufferView":28,"componentType":5126,"count":216,"max":[0.8549038171768188,0.5625,0.875],"min":[-0.8549038171768188,0.1875,-0.875],"type":"VEC3"},{"bufferView":29,"componentType":5126,"count":216,"max":[1,0.9952723383903503,1],"min":[-1,-0.9952723383903503,-1],"type":"VEC3"},{"bufferView":30,"componentType":5126,"count":216,"max":[0.743704617023468,0.9429988265037537],"min":[0.2685673236846924,0.7966064214706421],"type":"VEC2"},{"bufferView":31,"componentType":5123,"count":288,"max":[215],"min":[0],"type":"SCALAR"},{"bufferView":32,"componentType":5126,"count":216,"max":[0.6674038171768188,0.5625,0.6875],"min":[-0.6674038171768188,0.1875,-0.6875],"type":"VEC3"},{"bufferView":33,"componentType":5126,"count":216,"max":[1,0.9922778606414795,1],"min":[-1,-0.9922778606414795,-1],"type":"VEC3"},{"bufferView":34,"componentType":5126,"count":216,"max":[0.681204617023468,0.9371394515037537],"min":[0.3134891986846924,0.8200439214706421],"type":"VEC2"},{"bufferView":35,"componentType":5123,"count":288,"max":[215],"min":[0],"type":"SCALAR"},{"bufferView":36,"componentType":5126,"count":320,"max":[0.9222392439842224,0.2300073653459549,0.8704819679260254],"min":[-0.9222392439842224,-0.2300073653459549,-0.908193051815033],"type":"VEC3"},{"bufferView":37,"componentType":5126,"count":320,"max":[0.9994245171546936,0.979712724685669,1],"min":[-0.9994245171546936,-0.979712724685669,-1],"type":"VEC3"},{"bufferView":38,"componentType":5126,"count":320,"max":[0.6596553921699524,0.7439936399459839],"min":[0.09262503683567047,0.6524767875671387],"type":"VEC2"},{"bufferView":39,"componentType":5123,"count":480,"max":[319],"min":[0],"type":"SCALAR"},{"bufferView":40,"componentType":5126,"count":320,"max":[1.2347391843795776,0.2300073653459549,1.1829819679260254],"min":[-1.2347391843795776,-0.2300073653459549,-1.2206931114196777],"type":"VEC3"},{"bufferView":41,"componentType":5126,"count":320,"max":[0.9994351267814636,0.9886637330055237,1],"min":[-0.9994351267814636,-0.9886637330055237,-1],"type":"VEC3"},{"bufferView":42,"componentType":5126,"count":320,"max":[0.7514522671699524,0.9119623899459839],"min":[0.08285941183567047,0.7872423529624939],"type":"VEC2"},{"bufferView":43,"componentType":5123,"count":480,"max":[319],"min":[0],"type":"SCALAR"},{"bufferView":44,"componentType":5126,"count":528,"max":[4.375,0.625,4.375],"min":[-4.375,0,-4.375],"type":"VEC3"},{"bufferView":45,"componentType":5126,"count":528,"max":[1,1,1],"min":[-1,-1,-1],"type":"VEC3"},{"bufferView":46,"componentType":5126,"count":528,"max":[0.8724644780158997,0.484375],"min":[0.00017377045878674835,0],"type":"VEC2"},{"bufferView":47,"componentType":5123,"count":720,"max":[527],"min":[0],"type":"SCALAR"},{"bufferView":48,"componentType":5126,"count":112,"max":[0.625,0.75,0.625],"min":[-0.625,0,-0.625],"type":"VEC3"},{"bufferView":49,"componentType":5126,"count":112,"max":[1,0.9899495244026184,1],"min":[-1,-1,-1],"type":"VEC3"},{"bufferView":50,"componentType":5126,"count":112,"max":[0.7265625,0.7265625],"min":[0,0.0546875],"type":"VEC2"},{"bufferView":51,"componentType":5123,"count":144,"max":[111],"min":[0],"type":"SCALAR"},{"bufferView":52,"componentType":5126,"count":3,"max":[147],"min":[0],"type":"SCALAR"},{"bufferView":53,"componentType":5126,"count":3,"max":[0,0,0,1],"min":[0,-0.9999405145645142,0,-0.9997619986534119],"type":"VEC4"},{"bufferView":54,"componentType":5126,"count":1109,"max":[147],"min":[0],"type":"SCALAR"},{"bufferView":55,"componentType":5126,"count":1109,"max":[0,1,0,0.9990482330322266],"min":[0,-0.06540312618017197,0,-1],"type":"VEC4"},{"bufferView":56,"componentType":5126,"count":30,"max":[1000],"min":[0],"type":"SCALAR"},{"bufferView":57,"componentType":5126,"count":30,"max":[0,0.9985334277153015,0,0.9941379427909851],"min":[0,-0.9985334277153015,0,-1],"type":"VEC4"},{"bufferView":58,"componentType":5126,"count":22,"max":[1000],"min":[0],"type":"SCALAR"},{"bufferView":59,"componentType":5126,"count":22,"max":[0,0.9972038269042969,0,0.9888308048248291],"min":[0,-0.9972038269042969,0,-1],"type":"VEC4"},{"bufferView":60,"componentType":5126,"count":30,"max":[1000],"min":[0],"type":"SCALAR"},{"bufferView":61,"componentType":5126,"count":30,"max":[0,0.9985334277153015,0,0.9941379427909851],"min":[0,-0.9985334277153015,0,-1],"type":"VEC4"},{"bufferView":62,"componentType":5126,"count":30,"max":[1000],"min":[0],"type":"SCALAR"},{"bufferView":63,"componentType":5126,"count":30,"max":[0,0.9985334277153015,0,0.9941379427909851],"min":[0,-0.9985334277153015,0,-1],"type":"VEC4"},{"bufferView":64,"componentType":5126,"count":30,"max":[1000],"min":[0],"type":"SCALAR"},{"bufferView":65,"componentType":5126,"count":30,"max":[0,0.9985334277153015,0,0.9941379427909851],"min":[0,-0.9985334277153015,0,-1],"type":"VEC4"},{"bufferView":66,"componentType":5126,"count":22,"max":[1000],"min":[0],"type":"SCALAR"},{"bufferView":67,"componentType":5126,"count":22,"max":[0,0.9972038269042969,0,0.9888308048248291],"min":[0,-0.9972038269042969,0,-1],"type":"VEC4"},{"bufferView":68,"componentType":5126,"count":30,"max":[1000],"min":[0],"type":"SCALAR"},{"bufferView":69,"componentType":5126,"count":30,"max":[0,0.9985334277153015,0,0.9941379427909851],"min":[0,-0.9985334277153015,0,-1],"type":"VEC4"}],"materials":[{"pbrMetallicRoughness":{"metallicFactor":0,"roughnessFactor":1,"baseColorTexture":{"index":0}},"alphaMode":"MASK","alphaCutoff":0.05},{"pbrMetallicRoughness":{"metallicFactor":0,"roughnessFactor":1,"baseColorTexture":{"index":1}},"alphaMode":"MASK","alphaCutoff":0.05}],"textures":[{"sampler":0,"source":0,"name":"spookyjam_clockhands.png"},{"sampler":1,"source":1,"name":"spookyjam_clockface.png"}],"samplers":[{"magFilter":9728,"minFilter":9728,"wrapS":33071,"wrapT":33071},{"magFilter":9728,"minFilter":9728,"wrapS":33071,"wrapT":33071}],"images":[{"mimeType":"image/png","uri":"data:image/png;base64,"},{"mimeType":"image/png","uri":"data:image/png;base64,"}],"meshes":[{"primitives":[{"mode":4,"attributes":{"POSITION":0,"NORMAL":1,"TEXCOORD_0":2},"indices":3,"material":0}]},{"primitives":[{"mode":4,"attributes":{"POSITION":4,"NORMAL":5,"TEXCOORD_0":6},"indices":7,"material":0}]},{"primitives":[{"mode":4,"attributes":{"POSITION":8,"NORMAL":9,"TEXCOORD_0":10},"indices":11,"material":1}]},{"primitives":[{"mode":4,"attributes":{"POSITION":12,"NORMAL":13,"TEXCOORD_0":14},"indices":15,"material":0}]},{"primitives":[{"mode":4,"attributes":{"POSITION":16,"NORMAL":17,"TEXCOORD_0":18},"indices":19,"material":1}]},{"primitives":[{"mode":4,"attributes":{"POSITION":20,"NORMAL":21,"TEXCOORD_0":22},"indices":23,"material":1}]},{"primitives":[{"mode":4,"attributes":{"POSITION":24,"NORMAL":25,"TEXCOORD_0":26},"indices":27,"material":1}]},{"primitives":[{"mode":4,"attributes":{"POSITION":28,"NORMAL":29,"TEXCOORD_0":30},"indices":31,"material":1}]},{"primitives":[{"mode":4,"attributes":{"POSITION":32,"NORMAL":33,"TEXCOORD_0":34},"indices":35,"material":1}]},{"primitives":[{"mode":4,"attributes":{"POSITION":36,"NORMAL":37,"TEXCOORD_0":38},"indices":39,"material":1}]},{"primitives":[{"mode":4,"attributes":{"POSITION":40,"NORMAL":41,"TEXCOORD_0":42},"indices":43,"material":1}]},{"primitives":[{"mode":4,"attributes":{"POSITION":44,"NORMAL":45,"TEXCOORD_0":46},"indices":47,"material":1}]},{"primitives":[{"mode":4,"attributes":{"POSITION":48,"NORMAL":49,"TEXCOORD_0":50},"indices":51,"material":0}]}],"animations":[{"name":"clockloopreverse","samplers":[{"input":52,"output":53,"interpolation":"LINEAR"},{"input":54,"output":55,"interpolation":"STEP"}],"channels":[{"sampler":0,"target":{"node":3,"path":"rotation"}},{"sampler":1,"target":{"node":1,"path":"rotation"}}]},{"name":"gear_clockwise_loop","samplers":[{"input":56,"output":57,"interpolation":"LINEAR"},{"input":58,"output":59,"interpolation":"LINEAR"},{"input":60,"output":61,"interpolation":"LINEAR"},{"input":62,"output":63,"interpolation":"LINEAR"},{"input":64,"output":65,"interpolation":"LINEAR"},{"input":66,"output":67,"interpolation":"LINEAR"},{"input":68,"output":69,"interpolation":"LINEAR"}],"channels":[{"sampler":0,"target":{"node":8,"path":"rotation"}},{"sampler":1,"target":{"node":10,"path":"rotation"}},{"sampler":2,"target":{"node":12,"path":"rotation"}},{"sampler":3,"target":{"node":14,"path":"rotation"}},{"sampler":4,"target":{"node":16,"path":"rotation"}},{"sampler":5,"target":{"node":18,"path":"rotation"}},{"sampler":6,"target":{"node":20,"path":"rotation"}}]}]}