{"asset":{"version":"2.0","generator":"Blockbench 4.11.1 glTF exporter"},"scenes":[{"nodes":[12],"name":"blockbench_export"}],"scene":0,"nodes":[{"rotation":[0,-0.19509032201612825,0,0.9807852804032304],"name":"middlecircle","mesh":0},{"name":"clockbase","mesh":1},{"rotation":[0,-0.9396926207859083,0,0.3420201433256688],"name":"arrowsmall","mesh":2},{"translation":[-8.326672684688674e-17,0.25,0.02042812366740976],"name":"smallarrow","children":[2]},{"rotation":[0,-0.19509032201612825,0,0.9807852804032304],"name":"arrow","mesh":3},{"translation":[-8.326672684688674e-17,0.25,0.02042812366740976],"name":"bigarrow","children":[4]},{"name":"Clockface","children":[0,1,3,5]},{"name":"clockbase","mesh":4},{"rotation":[-0.9396926207859093,-7.485543584546882e-16,-0.34202014332566627,1.4065773393417474e-15],"translation":[-8.326672684688674e-17,0.25,0.02042812366740976],"name":"arrowsmall","mesh":5},{"rotation":[0,-0.19509032201612825,0,0.9807852804032304],"name":"middlecircle","mesh":6},{"rotation":[0.19509032201612847,7.391423177404067e-17,0.9807852804032304,1.1181892793250584e-15],"translation":[-8.326672684688674e-17,0.25,-0.8545718763325902],"name":"arrow","mesh":7},{"rotation":[0,0,-1,6.123233995736766e-17],"name":"Clockface2","children":[7,8,9,10]},{"children":[6,11]}],"bufferViews":[{"buffer":0,"byteOffset":0,"byteLength":1344,"target":34962,"byteStride":12},{"buffer":0,"byteOffset":1344,"byteLength":1344,"target":34962,"byteStride":12},{"buffer":0,"byteOffset":2688,"byteLength":896,"target":34962,"byteStride":8},{"buffer":0,"byteOffset":3584,"byteLength":288,"target":34963},{"buffer":0,"byteOffset":3872,"byteLength":6336,"target":34962,"byteStride":12},{"buffer":0,"byteOffset":10208,"byteLength":6336,"target":34962,"byteStride":12},{"buffer":0,"byteOffset":16544,"byteLength":4224,"target":34962,"byteStride":8},{"buffer":0,"byteOffset":20768,"byteLength":1440,"target":34963},{"buffer":0,"byteOffset":22208,"byteLength":1152,"target":34962,"byteStride":12},{"buffer":0,"byteOffset":23360,"byteLength":1152,"target":34962,"byteStride":12},{"buffer":0,"byteOffset":24512,"byteLength":768,"target":34962,"byteStride":8},{"buffer":0,"byteOffset":25280,"byteLength":264,"target":34963},{"buffer":0,"byteOffset":25544,"byteLength":1728,"target":34962,"byteStride":12},{"buffer":0,"byteOffset":27272,"byteLength":1728,"target":34962,"byteStride":12},{"buffer":0,"byteOffset":29000,"byteLength":1152,"target":34962,"byteStride":8},{"buffer":0,"byteOffset":30152,"byteLength":408,"target":34963},{"buffer":0,"byteOffset":30560,"byteLength":6336,"target":34962,"byteStride":12},{"buffer":0,"byteOffset":36896,"byteLength":6336,"target":34962,"byteStride":12},{"buffer":0,"byteOffset":43232,"byteLength":4224,"target":34962,"byteStride":8},{"buffer":0,"byteOffset":47456,"byteLength":1440,"target":34963},{"buffer":0,"byteOffset":48896,"byteLength":1152,"target":34962,"byteStride":12},{"buffer":0,"byteOffset":50048,"byteLength":1152,"target":34962,"byteStride":12},{"buffer":0,"byteOffset":51200,"byteLength":768,"target":34962,"byteStride":8},{"buffer":0,"byteOffset":51968,"byteLength":264,"target":34963},{"buffer":0,"byteOffset":52232,"byteLength":1344,"target":34962,"byteStride":12},{"buffer":0,"byteOffset":53576,"byteLength":1344,"target":34962,"byteStride":12},{"buffer":0,"byteOffset":54920,"byteLength":896,"target":34962,"byteStride":8},{"buffer":0,"byteOffset":55816,"byteLength":288,"target":34963},{"buffer":0,"byteOffset":56104,"byteLength":1728,"target":34962,"byteStride":12},{"buffer":0,"byteOffset":57832,"byteLength":1728,"target":34962,"byteStride":12},{"buffer":0,"byteOffset":59560,"byteLength":1152,"target":34962,"byteStride":8},{"buffer":0,"byteOffset":60712,"byteLength":408,"target":34963},{"buffer":0,"byteOffset":61120,"byteLength":12},{"buffer":0,"byteOffset":61132,"byteLength":48},{"buffer":0,"byteOffset":61180,"byteLength":4436},{"buffer":0,"byteOffset":65616,"byteLength":17744}],"buffers":[{"byteLength":83360,"uri":"data:application/octet-stream;base64,"}],"accessors":[{"bufferView":0,"componentType":5126,"count":112,"max":[0.625,0.75,0.625],"min":[-0.625,0,-0.625],"type":"VEC3"},{"bufferView":1,"componentType":5126,"count":112,"max":[1,0.9899495244026184,1],"min":[-1,-1,-1],"type":"VEC3"},{"bufferView":2,"componentType":5126,"count":112,"max":[0.7265625,0.7265625],"min":[0,0.0546875],"type":"VEC2"},{"bufferView":3,"componentType":5123,"count":144,"max":[111],"min":[0],"type":"SCALAR"},{"bufferView":4,"componentType":5126,"count":528,"max":[4.375,0.625,4.375],"min":[-4.375,0,-4.375],"type":"VEC3"},{"bufferView":5,"componentType":5126,"count":528,"max":[1,1,1],"min":[-1,-1,-1],"type":"VEC3"},{"bufferView":6,"componentType":5126,"count":528,"max":[0.6982614994049072,0.484375],"min":[0.00017377045878674835,0],"type":"VEC2"},{"bufferView":7,"componentType":5123,"count":720,"max":[527],"min":[0],"type":"SCALAR"},{"bufferView":8,"componentType":5126,"count":96,"max":[0.15590426325798035,0.3125,0.02870216593146324],"min":[-1.3054039478302002,-0.25,-2.5432000160217285],"type":"VEC3"},{"bufferView":9,"componentType":5126,"count":96,"max":[0.9953190684318542,0.9968917965888977,0.9957388639450073],"min":[-0.9950108528137207,-1,-0.9008045792579651],"type":"VEC3"},{"bufferView":10,"componentType":5126,"count":96,"max":[0.7109375,0.697265625],"min":[0.06296484172344208,0],"type":"VEC2"},{"bufferView":11,"componentType":5123,"count":132,"max":[95],"min":[0],"type":"SCALAR"},{"bufferView":12,"componentType":5126,"count":144,"max":[0.19277560710906982,0.3125,0.02870216593146324],"min":[-1.8304029703140259,-0.25,-3.4732542037963867],"type":"VEC3"},{"bufferView":13,"componentType":5126,"count":144,"max":[0.9961221814155579,0.9968917965888977,0.9957388639450073],"min":[-0.972734272480011,-1,-0.9151326417922974],"type":"VEC3"},{"bufferView":14,"componentType":5126,"count":144,"max":[0.7231242060661316,0.6640625],"min":[0,0],"type":"VEC2"},{"bufferView":15,"componentType":5123,"count":204,"max":[143],"min":[0],"type":"SCALAR"},{"bufferView":16,"componentType":5126,"count":528,"max":[4.375,0.625,4.375],"min":[-4.375,0,-4.375],"type":"VEC3"},{"bufferView":17,"componentType":5126,"count":528,"max":[1,1,1],"min":[-1,-1,-1],"type":"VEC3"},{"bufferView":18,"componentType":5126,"count":528,"max":[0.6982614994049072,0.484375],"min":[0.00017377045878674835,0],"type":"VEC2"},{"bufferView":19,"componentType":5123,"count":720,"max":[527],"min":[0],"type":"SCALAR"},{"bufferView":20,"componentType":5126,"count":96,"max":[0.15590426325798035,0.3125,0.02870216593146324],"min":[-1.3054039478302002,-0.3125,-2.5432000160217285],"type":"VEC3"},{"bufferView":21,"componentType":5126,"count":96,"max":[0.9953190684318542,0.9968917965888977,0.9957388639450073],"min":[-0.9950108528137207,-0.9968917965888977,-0.9008045792579651],"type":"VEC3"},{"bufferView":22,"componentType":5126,"count":96,"max":[0.7109375,0.697265625],"min":[0.06296484172344208,0],"type":"VEC2"},{"bufferView":23,"componentType":5123,"count":132,"max":[95],"min":[0],"type":"SCALAR"},{"bufferView":24,"componentType":5126,"count":112,"max":[0.625,0.75,0.625],"min":[-0.625,0,-0.625],"type":"VEC3"},{"bufferView":25,"componentType":5126,"count":112,"max":[1,0.9899495244026184,1],"min":[-1,-1,-1],"type":"VEC3"},{"bufferView":26,"componentType":5126,"count":112,"max":[0.7265625,0.7265625],"min":[0,0.0546875],"type":"VEC2"},{"bufferView":27,"componentType":5123,"count":144,"max":[111],"min":[0],"type":"SCALAR"},{"bufferView":28,"componentType":5126,"count":144,"max":[0.5276235938072205,0.3125,0.8370967507362366],"min":[-1.49555504322052,-0.3125,-2.6648595333099365],"type":"VEC3"},{"bufferView":29,"componentType":5126,"count":144,"max":[0.9961221814155579,0.9968917965888977,0.9957388639450073],"min":[-0.972734272480011,-0.9968917965888977,-0.9151326417922974],"type":"VEC3"},{"bufferView":30,"componentType":5126,"count":144,"max":[0.7231242060661316,0.6640625],"min":[0,0],"type":"VEC2"},{"bufferView":31,"componentType":5123,"count":204,"max":[143],"min":[0],"type":"SCALAR"},{"bufferView":32,"componentType":5126,"count":3,"max":[147],"min":[0],"type":"SCALAR"},{"bufferView":33,"componentType":5126,"count":3,"max":[0,0,0,1],"min":[0,-0.9999405145645142,0,-0.9997619986534119],"type":"VEC4"},{"bufferView":34,"componentType":5126,"count":1109,"max":[147],"min":[0],"type":"SCALAR"},{"bufferView":35,"componentType":5126,"count":1109,"max":[0,1,0,0.9990482330322266],"min":[0,-0.06540312618017197,0,-1],"type":"VEC4"}],"materials":[{"pbrMetallicRoughness":{"metallicFactor":0,"roughnessFactor":1,"baseColorTexture":{"index":0}},"alphaMode":"MASK","alphaCutoff":0.05},{"pbrMetallicRoughness":{"metallicFactor":0,"roughnessFactor":1,"baseColorTexture":{"index":1}},"alphaMode":"MASK","alphaCutoff":0.05}],"textures":[{"sampler":0,"source":0,"name":"texture"},{"sampler":1,"source":1,"name":"texture"}],"samplers":[{"magFilter":9728,"minFilter":9728,"wrapS":33071,"wrapT":33071},{"magFilter":9728,"minFilter":9728,"wrapS":33071,"wrapT":33071}],"images":[{"mimeType":"image/png","uri":"data:image/png;base64,"},{"mimeType":"image/png","uri":"data:image/png;base64,"}],"meshes":[{"primitives":[{"mode":4,"attributes":{"POSITION":0,"NORMAL":1,"TEXCOORD_0":2},"indices":3,"material":0}]},{"primitives":[{"mode":4,"attributes":{"POSITION":4,"NORMAL":5,"TEXCOORD_0":6},"indices":7,"material":1}]},{"primitives":[{"mode":4,"attributes":{"POSITION":8,"NORMAL":9,"TEXCOORD_0":10},"indices":11,"material":0}]},{"primitives":[{"mode":4,"attributes":{"POSITION":12,"NORMAL":13,"TEXCOORD_0":14},"indices":15,"material":0}]},{"primitives":[{"mode":4,"attributes":{"POSITION":16,"NORMAL":17,"TEXCOORD_0":18},"indices":19,"material":1}]},{"primitives":[{"mode":4,"attributes":{"POSITION":20,"NORMAL":21,"TEXCOORD_0":22},"indices":23,"material":0}]},{"primitives":[{"mode":4,"attributes":{"POSITION":24,"NORMAL":25,"TEXCOORD_0":26},"indices":27,"material":0}]},{"primitives":[{"mode":4,"attributes":{"POSITION":28,"NORMAL":29,"TEXCOORD_0":30},"indices":31,"material":0}]}],"animations":[{"name":"clockloopreverse","samplers":[{"input":32,"output":33,"interpolation":"LINEAR"},{"input":34,"output":35,"interpolation":"STEP"}],"channels":[{"sampler":0,"target":{"node":3,"path":"rotation"}},{"sampler":1,"target":{"node":5,"path":"rotation"}}]}]}