{"asset":{"version":"2.0","generator":"Blockbench 4.11.1 glTF exporter"},"scenes":[{"nodes":[16],"name":"blockbench_export"}],"scene":0,"nodes":[{"name":"fireinside","mesh":0},{"translation":[-0.1875,2.75,0],"name":"fireinside1","children":[0]},{"translation":[0,0.375,0],"name":"fireoutside","mesh":1},{"translation":[-0.1875,2.75,0],"name":"fireoutside1","children":[2]},{"translation":[0,0.375,0],"name":"fireoutside","mesh":2},{"translation":[-0.1875,2.75,0],"name":"fireoutside2","children":[4]},{"name":"fireinside","mesh":3},{"rotation":[-0.12806536444890648,0.02058068339732316,-0.014587143480940852,0.9914448613738106],"translation":[-0.1875,2.75,0],"name":"fireinside2","children":[6]},{"translation":[0,0.375,0],"name":"fireoutside","mesh":4},{"translation":[-0.1875,2.75,0],"name":"fireoutside3","children":[8]},{"name":"fireinside","mesh":5},{"rotation":[-0.12806536444890648,0.02058068339732316,-0.014587143480940852,0.9914448613738106],"translation":[-0.1875,2.75,0],"name":"fireinside3","children":[10]},{"name":"cylinder","mesh":6},{"name":"bone","children":[12]},{"name":"sphere","mesh":7},{"name":"hidden","children":[14]},{"children":[1,3,5,7,9,11,13,15]}],"bufferViews":[{"buffer":0,"byteOffset":0,"byteLength":720,"target":34962,"byteStride":12},{"buffer":0,"byteOffset":720,"byteLength":720,"target":34962,"byteStride":12},{"buffer":0,"byteOffset":1440,"byteLength":480,"target":34962,"byteStride":8},{"buffer":0,"byteOffset":1920,"byteLength":144,"target":34963},{"buffer":0,"byteOffset":2064,"byteLength":4344,"target":34962,"byteStride":12},{"buffer":0,"byteOffset":6408,"byteLength":4344,"target":34962,"byteStride":12},{"buffer":0,"byteOffset":10752,"byteLength":2896,"target":34962,"byteStride":8},{"buffer":0,"byteOffset":13648,"byteLength":1008,"target":34963},{"buffer":0,"byteOffset":14656,"byteLength":4344,"target":34962,"byteStride":12},{"buffer":0,"byteOffset":19000,"byteLength":4344,"target":34962,"byteStride":12},{"buffer":0,"byteOffset":23344,"byteLength":2896,"target":34962,"byteStride":8},{"buffer":0,"byteOffset":26240,"byteLength":1008,"target":34963},{"buffer":0,"byteOffset":27248,"byteLength":720,"target":34962,"byteStride":12},{"buffer":0,"byteOffset":27968,"byteLength":720,"target":34962,"byteStride":12},{"buffer":0,"byteOffset":28688,"byteLength":480,"target":34962,"byteStride":8},{"buffer":0,"byteOffset":29168,"byteLength":144,"target":34963},{"buffer":0,"byteOffset":29312,"byteLength":4344,"target":34962,"byteStride":12},{"buffer":0,"byteOffset":33656,"byteLength":4344,"target":34962,"byteStride":12},{"buffer":0,"byteOffset":38000,"byteLength":2896,"target":34962,"byteStride":8},{"buffer":0,"byteOffset":40896,"byteLength":1008,"target":34963},{"buffer":0,"byteOffset":41904,"byteLength":720,"target":34962,"byteStride":12},{"buffer":0,"byteOffset":42624,"byteLength":720,"target":34962,"byteStride":12},{"buffer":0,"byteOffset":43344,"byteLength":480,"target":34962,"byteStride":8},{"buffer":0,"byteOffset":43824,"byteLength":144,"target":34963},{"buffer":0,"byteOffset":43968,"byteLength":2880,"target":34962,"byteStride":12},{"buffer":0,"byteOffset":46848,"byteLength":2880,"target":34962,"byteStride":12},{"buffer":0,"byteOffset":49728,"byteLength":1920,"target":34962,"byteStride":8},{"buffer":0,"byteOffset":51648,"byteLength":672,"target":34963},{"buffer":0,"byteOffset":52320,"byteLength":288,"target":34962,"byteStride":12},{"buffer":0,"byteOffset":52608,"byteLength":288,"target":34962,"byteStride":12},{"buffer":0,"byteOffset":52896,"byteLength":192,"target":34962,"byteStride":8},{"buffer":0,"byteOffset":53088,"byteLength":48,"target":34963},{"buffer":0,"byteOffset":53136,"byteLength":52},{"buffer":0,"byteOffset":53188,"byteLength":208},{"buffer":0,"byteOffset":53396,"byteLength":76},{"buffer":0,"byteOffset":53472,"byteLength":228},{"buffer":0,"byteOffset":53700,"byteLength":52},{"buffer":0,"byteOffset":53752,"byteLength":208},{"buffer":0,"byteOffset":53960,"byteLength":76},{"buffer":0,"byteOffset":54036,"byteLength":228},{"buffer":0,"byteOffset":54264,"byteLength":40},{"buffer":0,"byteOffset":54304,"byteLength":160},{"buffer":0,"byteOffset":54464,"byteLength":88},{"buffer":0,"byteOffset":54552,"byteLength":264},{"buffer":0,"byteOffset":54816,"byteLength":28},{"buffer":0,"byteOffset":54844,"byteLength":112},{"buffer":0,"byteOffset":54956,"byteLength":88},{"buffer":0,"byteOffset":55044,"byteLength":264},{"buffer":0,"byteOffset":55308,"byteLength":52},{"buffer":0,"byteOffset":55360,"byteLength":208},{"buffer":0,"byteOffset":55568,"byteLength":40},{"buffer":0,"byteOffset":55608,"byteLength":120},{"buffer":0,"byteOffset":55728,"byteLength":76},{"buffer":0,"byteOffset":55804,"byteLength":228},{"buffer":0,"byteOffset":56032,"byteLength":64},{"buffer":0,"byteOffset":56096,"byteLength":256},{"buffer":0,"byteOffset":56352,"byteLength":40},{"buffer":0,"byteOffset":56392,"byteLength":120},{"buffer":0,"byteOffset":56512,"byteLength":76},{"buffer":0,"byteOffset":56588,"byteLength":228}],"buffers":[{"byteLength":56816,"uri":"data:application/octet-stream;base64,"}],"accessors":[{"bufferView":0,"componentType":5126,"count":60,"max":[0.25,0.375,0.33313295245170593],"min":[-0.3125,-0.3125,-0.33313295245170593],"type":"VEC3"},{"bufferView":1,"componentType":5126,"count":60,"max":[0.821994960308075,0.8303130865097046,0.8571428656578064],"min":[-0.7897856831550598,-0.8660253882408142,-1],"type":"VEC3"},{"bufferView":2,"componentType":5126,"count":60,"max":[0.8359375,0.8515625],"min":[0.7578125,0.7734375],"type":"VEC2"},{"bufferView":3,"componentType":5123,"count":72,"max":[59],"min":[0],"type":"SCALAR"},{"bufferView":4,"componentType":5126,"count":362,"max":[0.625,0.8125,0.6869051456451416],"min":[-0.625,-1,-0.6869051456451416],"type":"VEC3"},{"bufferView":5,"componentType":5126,"count":362,"max":[0.9717563986778259,0.932542085647583,0.9513489603996277],"min":[-0.9730175733566284,-0.9000943899154663,-0.9947750568389893],"type":"VEC3"},{"bufferView":6,"componentType":5126,"count":362,"max":[0.8637948632240295,0.7890625],"min":[0,0],"type":"VEC2"},{"bufferView":7,"componentType":5123,"count":504,"max":[361],"min":[0],"type":"SCALAR"},{"bufferView":8,"componentType":5126,"count":362,"max":[0.625,0.8125,0.6812035441398621],"min":[-0.625,-1,-0.6812035441398621],"type":"VEC3"},{"bufferView":9,"componentType":5126,"count":362,"max":[0.9659740328788757,0.9567403197288513,0.9193574786186218],"min":[-0.9771238565444946,-0.9033390879631042,-0.9841634035110474],"type":"VEC3"},{"bufferView":10,"componentType":5126,"count":362,"max":[0.8637948632240295,0.7890625],"min":[0,0],"type":"VEC2"},{"bufferView":11,"componentType":5123,"count":504,"max":[361],"min":[0],"type":"SCALAR"},{"bufferView":12,"componentType":5126,"count":60,"max":[0.25,0.4375,0.27063295245170593],"min":[-0.3125,-0.3125,-0.27063295245170593],"type":"VEC3"},{"bufferView":13,"componentType":5126,"count":60,"max":[0.8373520970344543,0.6347355246543884,1],"min":[-0.7321576476097107,-0.8944271802902222,-0.9284766912460327],"type":"VEC3"},{"bufferView":14,"componentType":5126,"count":60,"max":[0.8359375,0.8515625],"min":[0.7578125,0.7734375],"type":"VEC2"},{"bufferView":15,"componentType":5123,"count":72,"max":[59],"min":[0],"type":"SCALAR"},{"bufferView":16,"componentType":5126,"count":362,"max":[0.625,0.875,0.6812035441398621],"min":[-0.625,-1,-0.5927495360374451],"type":"VEC3"},{"bufferView":17,"componentType":5126,"count":362,"max":[0.9623962044715881,0.9533647298812866,0.9956448078155518],"min":[-0.9771238565444946,-0.9922314286231995,-0.9983430504798889],"type":"VEC3"},{"bufferView":18,"componentType":5126,"count":362,"max":[0.8637948632240295,0.7890625],"min":[0,0],"type":"VEC2"},{"bufferView":19,"componentType":5123,"count":504,"max":[361],"min":[0],"type":"SCALAR"},{"bufferView":20,"componentType":5126,"count":60,"max":[0.3125,0.5625,0.33313295245170593],"min":[-0.3125,-0.3125,-0.39563295245170593],"type":"VEC3"},{"bufferView":21,"componentType":5126,"count":60,"max":[0.83412104845047,0.6555987000465393,0.8841553330421448],"min":[-0.8428223133087158,-0.8759357333183289,-0.7774815559387207],"type":"VEC3"},{"bufferView":22,"componentType":5126,"count":60,"max":[0.8359375,0.8515625],"min":[0.7578125,0.7734375],"type":"VEC2"},{"bufferView":23,"componentType":5123,"count":72,"max":[59],"min":[0],"type":"SCALAR"},{"bufferView":24,"componentType":5126,"count":240,"max":[0.5316374897956848,2.255457878112793,0.6708837151527405],"min":[-0.8032351136207581,-0.28125,-0.6708837151527405],"type":"VEC3"},{"bufferView":25,"componentType":5126,"count":240,"max":[1,0.9914448857307434,0.9945012927055359],"min":[-0.9697820544242859,-0.8919805884361267,-0.9955361485481262],"type":"VEC3"},{"bufferView":26,"componentType":5126,"count":240,"max":[0.5690149068832397,0.5625],"min":[0,0],"type":"VEC2"},{"bufferView":27,"componentType":5123,"count":336,"max":[239],"min":[0],"type":"SCALAR"},{"bufferView":28,"componentType":5126,"count":24,"max":[0.03125,0.03125,0.03125],"min":[-0.03125,-0.03125,-0.03125],"type":"VEC3"},{"bufferView":29,"componentType":5126,"count":24,"max":[0.7071067690849304,0.7071067690849304,0.7071067690849304],"min":[-0.7071067690849304,-0.7071067690849304,-0.7071067690849304],"type":"VEC3"},{"bufferView":30,"componentType":5126,"count":24,"max":[0.015625,0.011049985885620117],"min":[0,0],"type":"VEC2"},{"bufferView":31,"componentType":5123,"count":24,"max":[23],"min":[0],"type":"SCALAR"},{"bufferView":32,"componentType":5126,"count":13,"max":[1.25],"min":[0],"type":"SCALAR"},{"bufferView":33,"componentType":5126,"count":13,"max":[0,0.4809887707233429,0,1],"min":[0,-0.9320078492164612,0,0.36243805289268494],"type":"VEC4"},{"bufferView":34,"componentType":5126,"count":19,"max":[1.3333333730697632],"min":[0],"type":"SCALAR"},{"bufferView":35,"componentType":5126,"count":19,"max":[1,1,1],"min":[0,0,0],"type":"VEC3"},{"bufferView":36,"componentType":5126,"count":13,"max":[1.25],"min":[0],"type":"SCALAR"},{"bufferView":37,"componentType":5126,"count":13,"max":[0.07640162855386734,0.9197930693626404,0.22507193684577942,1],"min":[0,0,0,-0.39659982919692993],"type":"VEC4"},{"bufferView":38,"componentType":5126,"count":19,"max":[1.3333333730697632],"min":[0],"type":"SCALAR"},{"bufferView":39,"componentType":5126,"count":19,"max":[1,1,1],"min":[0,0,0],"type":"VEC3"},{"bufferView":40,"componentType":5126,"count":10,"max":[1.25],"min":[0],"type":"SCALAR"},{"bufferView":41,"componentType":5126,"count":10,"max":[0,0,0,1],"min":[0,0,0,1],"type":"VEC4"},{"bufferView":42,"componentType":5126,"count":22,"max":[1.3333333730697632],"min":[0],"type":"SCALAR"},{"bufferView":43,"componentType":5126,"count":22,"max":[1,1,1],"min":[0,0,0],"type":"VEC3"},{"bufferView":44,"componentType":5126,"count":7,"max":[1.25],"min":[0],"type":"SCALAR"},{"bufferView":45,"componentType":5126,"count":7,"max":[-0.12806536257266998,0.020580682903528214,-0.014587143436074257,0.9914448857307434],"min":[-0.12806536257266998,0.020580682903528214,-0.014587143436074257,0.9914448857307434],"type":"VEC4"},{"bufferView":46,"componentType":5126,"count":22,"max":[1.3333333730697632],"min":[0],"type":"SCALAR"},{"bufferView":47,"componentType":5126,"count":22,"max":[1,1,1],"min":[0,0,0],"type":"VEC3"},{"bufferView":48,"componentType":5126,"count":13,"max":[1.3333333730697632],"min":[0],"type":"SCALAR"},{"bufferView":49,"componentType":5126,"count":13,"max":[0.017037086188793182,0,0.129409521818161,1],"min":[-0.1750568300485611,-0.15216949582099915,0,0.9673992991447449],"type":"VEC4"},{"bufferView":50,"componentType":5126,"count":10,"max":[1.25],"min":[0],"type":"SCALAR"},{"bufferView":51,"componentType":5126,"count":10,"max":[-0.1875,2.75,0],"min":[-0.1875,2.6875,0],"type":"VEC3"},{"bufferView":52,"componentType":5126,"count":19,"max":[1.3333333730697632],"min":[0],"type":"SCALAR"},{"bufferView":53,"componentType":5126,"count":19,"max":[1,1,1],"min":[0,0,0],"type":"VEC3"},{"bufferView":54,"componentType":5126,"count":16,"max":[1.3333333730697632],"min":[0],"type":"SCALAR"},{"bufferView":55,"componentType":5126,"count":16,"max":[0.3163124620914459,0.8840828537940979,0.2171858251094818,0.9914448857307434],"min":[-0.20304076373577118,0.020580682903528214,-0.014587143436074257,0.34388503432273865],"type":"VEC4"},{"bufferView":56,"componentType":5126,"count":10,"max":[1.25],"min":[0],"type":"SCALAR"},{"bufferView":57,"componentType":5126,"count":10,"max":[-0.1875,2.75,0],"min":[-0.1875,2.625,0],"type":"VEC3"},{"bufferView":58,"componentType":5126,"count":19,"max":[1.3333333730697632],"min":[0],"type":"SCALAR"},{"bufferView":59,"componentType":5126,"count":19,"max":[1,1,1],"min":[0,0,0],"type":"VEC3"}],"materials":[{"pbrMetallicRoughness":{"metallicFactor":0,"roughnessFactor":1,"baseColorTexture":{"index":0}},"alphaMode":"MASK","alphaCutoff":0.05},{"pbrMetallicRoughness":{"metallicFactor":0,"roughnessFactor":1,"baseColorTexture":{"index":1}},"alphaMode":"MASK","alphaCutoff":0.05},{"pbrMetallicRoughness":{"metallicFactor":0,"roughnessFactor":1},"alphaMode":"MASK","alphaCutoff":0.05}],"textures":[{"sampler":0,"source":0,"name":"texture"},{"sampler":1,"source":1,"name":"texture"}],"samplers":[{"magFilter":9728,"minFilter":9728,"wrapS":33071,"wrapT":33071},{"magFilter":9728,"minFilter":9728,"wrapS":33071,"wrapT":33071}],"images":[{"mimeType":"image/png","uri":"data:image/png;base64,"},{"mimeType":"image/png","uri":"data:image/png;base64,"}],"meshes":[{"primitives":[{"mode":4,"attributes":{"POSITION":0,"NORMAL":1,"TEXCOORD_0":2},"indices":3,"material":0}]},{"primitives":[{"mode":4,"attributes":{"POSITION":4,"NORMAL":5,"TEXCOORD_0":6},"indices":7,"material":0}]},{"primitives":[{"mode":4,"attributes":{"POSITION":8,"NORMAL":9,"TEXCOORD_0":10},"indices":11,"material":0}]},{"primitives":[{"mode":4,"attributes":{"POSITION":12,"NORMAL":13,"TEXCOORD_0":14},"indices":15,"material":0}]},{"primitives":[{"mode":4,"attributes":{"POSITION":16,"NORMAL":17,"TEXCOORD_0":18},"indices":19,"material":0}]},{"primitives":[{"mode":4,"attributes":{"POSITION":20,"NORMAL":21,"TEXCOORD_0":22},"indices":23,"material":0}]},{"primitives":[{"mode":4,"attributes":{"POSITION":24,"NORMAL":25,"TEXCOORD_0":26},"indices":27,"material":1}]},{"primitives":[{"mode":4,"attributes":{"POSITION":28,"NORMAL":29,"TEXCOORD_0":30},"indices":31,"material":2}]}],"animations":[{"name":"fiyah","samplers":[{"input":32,"output":33,"interpolation":"STEP"},{"input":34,"output":35,"interpolation":"STEP"},{"input":36,"output":37,"interpolation":"STEP"},{"input":38,"output":39,"interpolation":"STEP"},{"input":40,"output":41,"interpolation":"STEP"},{"input":42,"output":43,"interpolation":"STEP"},{"input":44,"output":45,"interpolation":"STEP"},{"input":46,"output":47,"interpolation":"STEP"},{"input":48,"output":49,"interpolation":"STEP"},{"input":50,"output":51,"interpolation":"STEP"},{"input":52,"output":53,"interpolation":"STEP"},{"input":54,"output":55,"interpolation":"STEP"},{"input":56,"output":57,"interpolation":"STEP"},{"input":58,"output":59,"interpolation":"STEP"}],"channels":[{"sampler":0,"target":{"node":1,"path":"rotation"}},{"sampler":1,"target":{"node":1,"path":"scale"}},{"sampler":2,"target":{"node":3,"path":"rotation"}},{"sampler":3,"target":{"node":3,"path":"scale"}},{"sampler":4,"target":{"node":5,"path":"rotation"}},{"sampler":5,"target":{"node":5,"path":"scale"}},{"sampler":6,"target":{"node":7,"path":"rotation"}},{"sampler":7,"target":{"node":7,"path":"scale"}},{"sampler":8,"target":{"node":9,"path":"rotation"}},{"sampler":9,"target":{"node":9,"path":"translation"}},{"sampler":10,"target":{"node":9,"path":"scale"}},{"sampler":11,"target":{"node":11,"path":"rotation"}},{"sampler":12,"target":{"node":11,"path":"translation"}},{"sampler":13,"target":{"node":11,"path":"scale"}}]}]}