{"asset":{"version":"2.0","generator":"Blockbench 4.11.1 glTF exporter"},"scenes":[{"nodes":[2],"name":"blockbench_export"}],"scene":0,"nodes":[{"name":"pillarbottomWIDE","mesh":0},{"name":"pillar","children":[0]},{"children":[1]}],"bufferViews":[{"buffer":0,"byteOffset":0,"byteLength":1056,"target":34962,"byteStride":12},{"buffer":0,"byteOffset":1056,"byteLength":1056,"target":34962,"byteStride":12},{"buffer":0,"byteOffset":2112,"byteLength":704,"target":34962,"byteStride":8},{"buffer":0,"byteOffset":2816,"byteLength":264,"target":34963}],"buffers":[{"byteLength":3080,"uri":"data:application/octet-stream;base64,"}],"accessors":[{"bufferView":0,"componentType":5126,"count":88,"max":[1.25,0.5,4.6875],"min":[-1.25,0,0.9375],"type":"VEC3"},{"bufferView":1,"componentType":5126,"count":88,"max":[0.9993148446083069,1,1],"min":[-0.9993148446083069,-1,-1],"type":"VEC3"},{"bufferView":2,"componentType":5126,"count":88,"max":[0.50390625,0.865234375],"min":[0.265625,0],"type":"VEC2"},{"bufferView":3,"componentType":5123,"count":132,"max":[87],"min":[0],"type":"SCALAR"}],"materials":[{"pbrMetallicRoughness":{"metallicFactor":0,"roughnessFactor":1,"baseColorTexture":{"index":0}},"alphaMode":"MASK","alphaCutoff":0.05}],"textures":[{"sampler":0,"source":0,"name":"pillar1.png"}],"samplers":[{"magFilter":9728,"minFilter":9728,"wrapS":33071,"wrapT":33071}],"images":[{"mimeType":"image/png","uri":"data:image/png;base64,"}],"meshes":[{"primitives":[{"mode":4,"attributes":{"POSITION":0,"NORMAL":1,"TEXCOORD_0":2},"indices":3,"material":0}]}]}