{"asset":{"version":"2.0","generator":"Blockbench 4.11.1 glTF exporter"},"scenes":[{"nodes":[7],"name":"blockbench_export"}],"scene":0,"nodes":[{"translation":[0,-11.25,0],"name":"walls","mesh":0},{"translation":[-3.75,43,-7.5625],"name":"cuboid","mesh":1},{"rotation":[0,-0.6156614753256583,0,0.7880107536067219],"translation":[0,32.625,0],"name":"walls3","mesh":2},{"rotation":[0,-0.6156614753256583,0,0.7880107536067219],"translation":[0,22.25,0],"name":"coveragetop","mesh":3},{"rotation":[0,0.9320078692827984,0,0.3624380382837017],"translation":[0,11.125,0],"name":"walls","mesh":4},{"rotation":[0,-0.6156614753256583,0,0.7880107536067219],"translation":[0,-0.1875,0],"name":"coveragemid","mesh":5},{"rotation":[0,-0.6156614753256583,0,0.7880107536067219],"translation":[0,-21.5625,0],"name":"coveragebot","mesh":6},{"children":[0,1,2,3,4,5,6]}],"bufferViews":[{"buffer":0,"byteOffset":0,"byteLength":1584,"target":34962,"byteStride":12},{"buffer":0,"byteOffset":1584,"byteLength":1584,"target":34962,"byteStride":12},{"buffer":0,"byteOffset":3168,"byteLength":1056,"target":34962,"byteStride":8},{"buffer":0,"byteOffset":4224,"byteLength":360,"target":34963},{"buffer":0,"byteOffset":4584,"byteLength":288,"target":34962,"byteStride":12},{"buffer":0,"byteOffset":4872,"byteLength":288,"target":34962,"byteStride":12},{"buffer":0,"byteOffset":5160,"byteLength":192,"target":34962,"byteStride":8},{"buffer":0,"byteOffset":5352,"byteLength":72,"target":34963},{"buffer":0,"byteOffset":5424,"byteLength":4056,"target":34962,"byteStride":12},{"buffer":0,"byteOffset":9480,"byteLength":4056,"target":34962,"byteStride":12},{"buffer":0,"byteOffset":13536,"byteLength":2704,"target":34962,"byteStride":8},{"buffer":0,"byteOffset":16240,"byteLength":876,"target":34963},{"buffer":0,"byteOffset":17116,"byteLength":1896,"target":34962,"byteStride":12},{"buffer":0,"byteOffset":19012,"byteLength":1896,"target":34962,"byteStride":12},{"buffer":0,"byteOffset":20908,"byteLength":1264,"target":34962,"byteStride":8},{"buffer":0,"byteOffset":22172,"byteLength":468,"target":34963},{"buffer":0,"byteOffset":22640,"byteLength":1584,"target":34962,"byteStride":12},{"buffer":0,"byteOffset":24224,"byteLength":1584,"target":34962,"byteStride":12},{"buffer":0,"byteOffset":25808,"byteLength":1056,"target":34962,"byteStride":8},{"buffer":0,"byteOffset":26864,"byteLength":360,"target":34963},{"buffer":0,"byteOffset":27224,"byteLength":1896,"target":34962,"byteStride":12},{"buffer":0,"byteOffset":29120,"byteLength":1896,"target":34962,"byteStride":12},{"buffer":0,"byteOffset":31016,"byteLength":1264,"target":34962,"byteStride":8},{"buffer":0,"byteOffset":32280,"byteLength":468,"target":34963},{"buffer":0,"byteOffset":32748,"byteLength":1896,"target":34962,"byteStride":12},{"buffer":0,"byteOffset":34644,"byteLength":1896,"target":34962,"byteStride":12},{"buffer":0,"byteOffset":36540,"byteLength":1264,"target":34962,"byteStride":8},{"buffer":0,"byteOffset":37804,"byteLength":468,"target":34963}],"buffers":[{"byteLength":38272,"uri":"data:application/octet-stream;base64,"}],"accessors":[{"bufferView":0,"componentType":5126,"count":132,"max":[10.3125,22.3125,10.3125],"min":[-10.3125,0,-10.3125],"type":"VEC3"},{"bufferView":1,"componentType":5126,"count":132,"max":[1,1,1],"min":[-1,-1,-1],"type":"VEC3"},{"bufferView":2,"componentType":5126,"count":132,"max":[0.5110678672790527,0.64111328125],"min":[0,0.00146484375],"type":"VEC2"},{"bufferView":3,"componentType":5123,"count":180,"max":[131],"min":[0],"type":"SCALAR"},{"bufferView":4,"componentType":5126,"count":24,"max":[0.5,0.5,0.5],"min":[-0.5,0,-0.5],"type":"VEC3"},{"bufferView":5,"componentType":5126,"count":24,"max":[1,1,1],"min":[-1,-1,-1],"type":"VEC3"},{"bufferView":6,"componentType":5126,"count":24,"max":[0.125,0.125],"min":[0,0],"type":"VEC2"},{"bufferView":7,"componentType":5123,"count":36,"max":[23],"min":[0],"type":"SCALAR"},{"bufferView":8,"componentType":5126,"count":338,"max":[10.3125,22.53125,10.3125],"min":[-10.3125,0,-10.3125],"type":"VEC3"},{"bufferView":9,"componentType":5126,"count":338,"max":[1,1,1],"min":[-1,-1,-1],"type":"VEC3"},{"bufferView":10,"componentType":5126,"count":338,"max":[0.5110678672790527,0.64111328125],"min":[0,0],"type":"VEC2"},{"bufferView":11,"componentType":5123,"count":438,"max":[337],"min":[0],"type":"SCALAR"},{"bufferView":12,"componentType":5126,"count":158,"max":[10.390625,13.0625,10.853124618530273],"min":[-10.390625,9.507887840270996,-10.853124618530273],"type":"VEC3"},{"bufferView":13,"componentType":5126,"count":158,"max":[1,0.9808849096298218,1],"min":[-1,-0.9894976019859314,-1],"type":"VEC3"},{"bufferView":14,"componentType":5126,"count":158,"max":[0.23277875781059265,0.21046900749206543],"min":[0.16146770119667053,0.17968696355819702],"type":"VEC2"},{"bufferView":15,"componentType":5123,"count":234,"max":[157],"min":[0],"type":"SCALAR"},{"bufferView":16,"componentType":5126,"count":132,"max":[10.3125,22.3125,10.3125],"min":[-10.3125,0,-10.3125],"type":"VEC3"},{"bufferView":17,"componentType":5126,"count":132,"max":[1,1,1],"min":[-1,-1,-1],"type":"VEC3"},{"bufferView":18,"componentType":5126,"count":132,"max":[0.5110678672790527,0.64111328125],"min":[0,0.00146484375],"type":"VEC2"},{"bufferView":19,"componentType":5123,"count":180,"max":[131],"min":[0],"type":"SCALAR"},{"bufferView":20,"componentType":5126,"count":158,"max":[10.451268196105957,13.0625,10.853124618530273],"min":[-10.390625,9.507887840270996,-10.853124618530273],"type":"VEC3"},{"bufferView":21,"componentType":5126,"count":158,"max":[1,0.9808849096298218,1],"min":[-0.9998458027839661,-0.9927551746368408,-1],"type":"VEC3"},{"bufferView":22,"componentType":5126,"count":158,"max":[0.23277875781059265,0.21046900749206543],"min":[0.16146770119667053,0.17968696355819702],"type":"VEC2"},{"bufferView":23,"componentType":5123,"count":234,"max":[157],"min":[0],"type":"SCALAR"},{"bufferView":24,"componentType":5126,"count":158,"max":[10.51191234588623,13.0625,10.853124618530273],"min":[-10.390625,9.507887840270996,-10.853124618530273],"type":"VEC3"},{"bufferView":25,"componentType":5126,"count":158,"max":[1,0.9808849096298218,1],"min":[-0.9993890523910522,-0.9981739521026611,-1],"type":"VEC3"},{"bufferView":26,"componentType":5126,"count":158,"max":[0.23277875781059265,0.21046900749206543],"min":[0.16146770119667053,0.17968696355819702],"type":"VEC2"},{"bufferView":27,"componentType":5123,"count":234,"max":[157],"min":[0],"type":"SCALAR"}],"materials":[{"pbrMetallicRoughness":{"metallicFactor":0,"roughnessFactor":1,"baseColorTexture":{"index":0}},"alphaMode":"MASK","alphaCutoff":0.05},{"pbrMetallicRoughness":{"metallicFactor":0,"roughnessFactor":1},"alphaMode":"MASK","alphaCutoff":0.05}],"textures":[{"sampler":0,"source":0,"name":"spookyjam_walls_0.png"}],"samplers":[{"magFilter":9728,"minFilter":9728,"wrapS":33071,"wrapT":33071}],"images":[{"mimeType":"image/png","uri":"data:image/png;base64,"}],"meshes":[{"primitives":[{"mode":4,"attributes":{"POSITION":0,"NORMAL":1,"TEXCOORD_0":2},"indices":3,"material":0}]},{"primitives":[{"mode":4,"attributes":{"POSITION":4,"NORMAL":5,"TEXCOORD_0":6},"indices":7,"material":1}]},{"primitives":[{"mode":4,"attributes":{"POSITION":8,"NORMAL":9,"TEXCOORD_0":10},"indices":11,"material":0}]},{"primitives":[{"mode":4,"attributes":{"POSITION":12,"NORMAL":13,"TEXCOORD_0":14},"indices":15,"material":0}]},{"primitives":[{"mode":4,"attributes":{"POSITION":16,"NORMAL":17,"TEXCOORD_0":18},"indices":19,"material":0}]},{"primitives":[{"mode":4,"attributes":{"POSITION":20,"NORMAL":21,"TEXCOORD_0":22},"indices":23,"material":0}]},{"primitives":[{"mode":4,"attributes":{"POSITION":24,"NORMAL":25,"TEXCOORD_0":26},"indices":27,"material":0}]}]}